<svg xmlns="http://www.w3.org/2000/svg" xmlns:xlink="http://www.w3.org/1999/xlink" xmlns:lucid="lucid" width="1722" height="1075.69"><g transform="translate(-19 -244.31104226662723)" lucid:page-tab-id="Mwwfso~K_DPJ"><g filter="url(#a)"><path d="M240 666a6 6 0 0 1 6-6h148a6 6 0 0 1 6 6v68a6 6 0 0 1-6 6H246a6 6 0 0 1-6-6z" stroke="#3a414a" fill="#d7faf5"/><use xlink:href="#b" transform="matrix(1,0,0,1,245,665) translate(14.567901234567913 26.52777777777778)"/><use xlink:href="#c" transform="matrix(1,0,0,1,245,665) translate(99.62962962962962 26.52777777777778)"/><use xlink:href="#d" transform="matrix(1,0,0,1,245,665) translate(26.26543209876543 53.19444444444445)"/></g><g filter="url(#a)"><path d="M920 666a6 6 0 0 1 6-6h148a6 6 0 0 1 6 6v68a6 6 0 0 1-6 6H926a6 6 0 0 1-6-6z" stroke="#3a414a" fill="#fff0f0"/><use xlink:href="#e" transform="matrix(1,0,0,1,925,665) translate(17.037037037037038 26.52777777777778)"/><use xlink:href="#c" transform="matrix(1,0,0,1,925,665) translate(97.1604938271605 26.52777777777778)"/><use xlink:href="#d" transform="matrix(1,0,0,1,925,665) translate(26.26543209876543 53.19444444444445)"/></g><g filter="url(#a)"><path d="M1540 657.74a6 6 0 0 1 6-6h148a6 6 0 0 1 6 6v68a6 6 0 0 1-6 6h-148a6 6 0 0 1-6-6z" stroke="#3a414a" fill="#cfe4ff"/><use xlink:href="#f" transform="matrix(1,0,0,1,1545,656.7352419760889) translate(1.018518518518519 26.52777777777778)"/><use xlink:href="#c" transform="matrix(1,0,0,1,1545,656.7352419760889) translate(113.17901234567901 26.52777777777778)"/><use xlink:href="#d" transform="matrix(1,0,0,1,1545,656.7352419760889) translate(26.26543209876543 53.19444444444445)"/></g><g filter="url(#g)"><path d="M980 271.3a6 6 0 0 1 6-6h148a6 6 0 0 1 6 6v60a6 6 0 0 1-6 6H986a6 6 0 0 1-6-6z" stroke="#3a414a" fill="#fcfcca"/><use xlink:href="#h" transform="matrix(1,0,0,1,985,270.3110422666272) translate(23.827160493827165 21.65277777777778)"/><use xlink:href="#c" transform="matrix(1,0,0,1,985,270.3110422666272) translate(90.37037037037037 21.65277777777778)"/><use xlink:href="#d" transform="matrix(1,0,0,1,985,270.3110422666272) translate(26.26543209876543 48.31944444444444)"/></g><g filter="url(#i)"><path d="M40 1106a6 6 0 0 1 6-6h148a6 6 0 0 1 6 6v108a6 6 0 0 1-6 6H46a6 6 0 0 1-6-6z" stroke="#3a414a" fill="#fff"/><use xlink:href="#j" transform="matrix(1,0,0,1,52,1112) translate(39.69753086419753 53.77777777777778)"/></g><g filter="url(#k)"><path d="M1280 449.9a6 6 0 0 1 6-6h148a6 6 0 0 1 6 6v46.35a6 6 0 0 1-6 6h-148a6 6 0 0 1-6-6z" stroke="#3a414a" fill="#e3fae3"/><use xlink:href="#l" transform="matrix(1,0,0,1,1285,448.9139145150825) translate(13.981481481481481 30.02777777777778)"/><use xlink:href="#m" transform="matrix(1,0,0,1,1285,448.9139145150825) translate(75.64814814814815 30.02777777777778)"/></g><g filter="url(#k)"><path d="M700 449.9a6 6 0 0 1 6-6h148a6 6 0 0 1 6 6v46.35a6 6 0 0 1-6 6H706a6 6 0 0 1-6-6z" stroke="#3a414a" fill="#fff3d9"/><use xlink:href="#n" transform="matrix(1,0,0,1,705,448.9139145150825) translate(18.54938271604938 30.02777777777778)"/><use xlink:href="#m" transform="matrix(1,0,0,1,705,448.9139145150825) translate(71.08024691358025 30.02777777777778)"/></g><path d="M780 442.95v-7.72m0-7.73v-15.44m0-7.72v-7.73l.07-.93.22-.9.35-.88.5-.8.6-.73.72-.6.8-.5.88-.36.9-.2 9.97-.02m9.96 0h19.92m9.96 0h19.93m9.95-.02h19.92m9.96 0h19.92m9.96 0l19.93-.02m9.96 0h19.9m9.98 0h19.92m9.96-.02h19.92m9.96 0h9.96l.94-.08.9-.22.88-.36.8-.5.72-.6.6-.72.5-.8.37-.87.23-.92.02-10.46m.03-10.48l.02-10.46" stroke="#3a414a" fill="none"/><path d="M780.5 443.45h-1v-.5h1z" stroke="#3a414a" stroke-width=".05" fill="#3a414a"/><path d="M1060 339.4l4.64 14.26h-9.28z" stroke="#3a414a" fill="#3a414a"/><path d="M1360.5 442.95h-1v-7.72h1zm0-15.45h-1v-15.44h1zm-5.5-37.3l1 .23.95.4.87.52.78.67.66.77.53.86.38.94.24 1 .08 1v7.74h-1v-7.7l-.07-.9-.2-.83-.33-.78-.45-.74-.56-.66-.67-.56-.73-.45-.8-.32-.82-.2h-9.57v-1zm-19.32-.02v1h-19.27v-1zm-28.9 0v1h-19.26v-1zm-28.9 0v1l-19.25-.02v-1zm-28.9-.02v1h-19.25v-1zm-28.88 0v1h-19.26v-1zm-93.26-.03v1h-12.68v-1zm-22.3 0v1h-19.28v-1zm-43.97-4.64l.2.8.33.8.45.74.56.66.67.56.73.45.8.34.84.2.88.07h9.6v1H1066l-1-.07-1-.23-.93-.4-.87-.53-.78-.66-.66-.77-.53-.87-.38-.94-.25-1-.02-10.53h1zm-.05-20.88h-1l-.02-10.46h1z" stroke="#3a414a" stroke-width=".05" fill="#3a414a"/><path d="M1360.5 443.45h-1v-.5h1z" fill="#3a414a"/><path d="M1360.53 443.48h-1.06v-.57h1.06zm-1-.52v.47h.94v-.47z" stroke="#3a414a" stroke-width=".05" fill="#3a414a"/><path d="M1064.64 353.66h-9.28l4.64-14.27z" fill="#3a414a"/><path d="M1065.32 354.16h-10.64l5.32-16.4zm-9.27-1h7.9L1060 341z" stroke="#3a414a" stroke-width=".05" fill="#3a414a"/><use xlink:href="#o" transform="matrix(1,0,0,1,1126.8395061728397,379.9458117241882) translate(0 14.222222222222223)"/><g filter="url(#a)"><path d="M1120 666a6 6 0 0 1 6-6h148a6 6 0 0 1 6 6v68a6 6 0 0 1-6 6h-148a6 6 0 0 1-6-6z" stroke="#3a414a" fill="#f2f2ff"/><use xlink:href="#p" transform="matrix(1,0,0,1,1125,665) translate(16.419753086419753 26.52777777777778)"/><use xlink:href="#c" transform="matrix(1,0,0,1,1125,665) translate(97.77777777777777 26.52777777777778)"/><use xlink:href="#d" transform="matrix(1,0,0,1,1125,665) translate(26.26543209876543 53.19444444444445)"/></g><g filter="url(#q)"><path d="M540 1106a6 6 0 0 1 6-6h188a6 6 0 0 1 6 6v108a6 6 0 0 1-6 6H546a6 6 0 0 1-6-6z" stroke="#3a414a" fill="#d7faf5"/><use xlink:href="#r" transform="matrix(1,0,0,1,552,1112) translate(14.666666666666657 53.77777777777778)"/></g><path d="M120.5 1099.04h-1v-10.08h1zm0-20.16h-1v-20.15h1zm0-30.23h-1v-20.16h1zm0-30.24h-1v-20.14h1zm0-30.22h-1v-20.16h1zm0-30.23h-1V937.8h1zm0-30.24h-1v-20.14h1zm0-30.22h-1v-20.16h1zm0-30.23h-1v-16.58h1zm0-37.92h-1v-12.47h1zm0-22.55h-1v-20.16h1zm0-30.23h-1V756.4h1zm0-30.24h-1v-20.14h1zm15.46-45.73h-10.84l-.82.2-.8.33-.73.45-.66.56-.55.67-.45.73-.33.8-.2.84-.07.88v10.06h-1v-10.1l.08-1 .24-1 .4-.93.52-.87.66-.78.78-.66.87-.53.94-.38 1-.25h10.96zm32.7-.03l-21.8.02v-1l21.8-.02zm32.7-.02h-21.8v-1h21.8zm21.8-.02h-10.9v-1h10.9z" stroke="#3a414a" stroke-width=".05" fill="#3a414a"/><path d="M120.5 1099.54h-1v-.52h1z" fill="#3a414a"/><path d="M120.53 1099.56h-1.06v-.56h1.06zm-1-.5v.45h.94v-.45z" stroke="#3a414a" stroke-width=".05" fill="#3a414a"/><path d="M237.92 700l-14.27 4.64v-9.28z" fill="#3a414a"/><path d="M239.54 700l-16.4 5.32v-10.64zm-15.4 3.95L236.3 700l-12.15-3.95z" stroke="#3a414a" stroke-width=".05" fill="#3a414a"/><use xlink:href="#o" transform="matrix(1,0,0,1,85.50617283950615,829.3334686565082) translate(0 14.222222222222223)"/><g filter="url(#a)"><path d="M240 561.3a6 6 0 0 1 6-6h148a6 6 0 0 1 6 6v68a6 6 0 0 1-6 6H246a6 6 0 0 1-6-6z" stroke="#3a414a" fill="#fff"/><use xlink:href="#s" transform="matrix(1,0,0,1,245,560.2869945301828) translate(29.93827160493828 39.65277777777778)"/></g><path d="M1620.5 650.77h-1V547.04h1zm-5.5-178.12l1 .25.95.4.87.52.78.66.66.78.53.87.38.94.24 1 .08 1v46.63h-1v-46.6l-.07-.88-.2-.84-.33-.8-.45-.73-.56-.66-.67-.57-.73-.45-.8-.33-.82-.2-144.04-.07v-1z" stroke="#3a414a" stroke-width=".05" fill="#3a414a"/><path d="M1620.5 651.27h-1v-.5h1z" fill="#3a414a"/><path d="M1620.53 651.3h-1.06v-.57h1.06zm-1-.52v.47h.94v-.47z" stroke="#3a414a" stroke-width=".05" fill="#3a414a"/><path d="M1471.17 473.08l-15.15 14.85-14.85-14.85 14.85-14.85z" fill="#fff"/><path d="M1471.9 473.08L1456 488.63l-15.56-15.55 15.56-15.55zm-30.02 0l14.14 14.15 14.44-14.15-14.44-14.15z" stroke="#3a414a" stroke-width=".05" fill="#3a414a"/><use xlink:href="#t" transform="matrix(1,0,0,1,1598.79012345679,525.7032243064486) translate(0 14.222222222222223)"/><path d="M1360.5 533.1l-.07 43.02-.25 1-.4.96-.52.87-.66.77-.78.66-.87.54-.94.4-.98.23-1 .07-148.9.08-.82.2-.8.32-.73.46-.66.56-.55.65-.45.73-.33.8-.2.83-.07.88v71.9h-1V587.1l.08-1 .24-1 .4-.93.52-.87.66-.77.78-.67.87-.53.94-.4 1-.23 148.98-.08.88-.07.84-.2.8-.33.73-.45.66-.56.55-.64.45-.74.33-.8.2-.82.07-42.92z" stroke="#3a414a" stroke-width=".05" fill="#3a414a"/><path d="M1200.5 659.54h-1v-.52h1z" fill="#3a414a"/><path d="M1200.53 659.56h-1.06V659h1.06zm-1-.5v.45h.94v-.45z" stroke="#3a414a" stroke-width=".05" fill="#3a414a"/><path d="M1374.85 518.27L1360 533.42l-14.85-15.15 14.85-14.85z" fill="#fff"/><path d="M1375.55 518.26L1360 534.13l-15.55-15.87L1360 502.7zm-29.7 0L1360 532.7l14.15-14.43-14.15-14.15zM1200.5 659.04h-1v-175.3h1zm-28.16-186.4v1l-281.5-.06v-1z" stroke="#3a414a" stroke-width=".05" fill="#3a414a"/><path d="M1200.5 659.54h-1v-.52h1z" fill="#3a414a"/><path d="M1200.53 659.56h-1.06V659h1.06zm-1-.5v.45h.94v-.45z" stroke="#3a414a" stroke-width=".05" fill="#3a414a"/><path d="M891.17 473.08l-15.15 14.85-14.85-14.85 14.85-14.85z" fill="#fff"/><path d="M891.9 473.08L876 488.63l-15.56-15.55 15.56-15.55zm-30.02 0l14.14 14.15 14.44-14.15-14.44-14.15z" stroke="#3a414a" stroke-width=".05" fill="#3a414a"/><use xlink:href="#t" transform="matrix(1,0,0,1,1172.3412288670338,462.41391451508247) translate(0 14.222222222222223)"/><g filter="url(#q)"><path d="M940 1106a6 6 0 0 1 6-6h188a6 6 0 0 1 6 6v108a6 6 0 0 1-6 6H946a6 6 0 0 1-6-6z" stroke="#3a414a" fill="#fff0f0"/><use xlink:href="#u" transform="matrix(1,0,0,1,952,1112) translate(15.314814814814824 53.77777777777778)"/></g><path d="M200.96 1160h47.2" stroke="#3a414a" fill="none"/><path d="M200.98 1160.5h-.52v-1h.52z" stroke="#3a414a" stroke-width=".05" fill="#3a414a"/><path d="M262.92 1160l-14.27 4.64v-9.28z" stroke="#3a414a" fill="#3a414a"/><path d="M455.96 1160h67.2" stroke="#3a414a" fill="none"/><path d="M455.98 1160.5h-.52v-1h.52z" stroke="#3a414a" stroke-width=".05" fill="#3a414a"/><path d="M537.92 1160l-14.27 4.64v-9.28z" stroke="#3a414a" fill="#3a414a"/><path d="M772.3 1160.5h-31.34v-1h31.34zm150.85 0h-84.78v-1h84.78z" stroke="#3a414a" stroke-width=".05" fill="#3a414a"/><path d="M740.98 1160.5h-.52v-1h.52z" fill="#3a414a"/><path d="M741 1160.53h-.56v-1.06h.56zm-.5-1v.94h.45v-.94z" stroke="#3a414a" stroke-width=".05" fill="#3a414a"/><path d="M937.92 1160l-14.27 4.64v-9.28z" fill="#3a414a"/><path d="M939.54 1160l-16.4 5.32v-10.64zm-15.4 3.95l12.16-3.95-12.15-3.95z" stroke="#3a414a" stroke-width=".05" fill="#3a414a"/><use xlink:href="#v" transform="matrix(1,0,0,1,772.2962962962964,1149.3333333333333) translate(0 14.222222222222223)"/><path d="M519.08 1108.4l.2.83.33.8.46.73.56.65.65.57.74.46.8.33.84.2.88.07h14.5v1h-14.53l-1-.08-1-.24-.95-.38-.87-.53-.77-.68-.65-.77-.54-.87-.38-.94-.24-1.02v-9.55h1zm0-18.93h-1l-.02-19h1zm-.03-28.5h-1v-19h1zm0-28.5h-1l-.02-18.98h1zM519 1004h-1v-19h1zm-5.52-44.43l1 .25.96.4.87.52.77.66.66.78.54.87.4.94.23.98.08 1v9.52h-1v-9.48l-.06-.88-.2-.84-.34-.8-.45-.73-.56-.66-.66-.55-.74-.45-.8-.33-.82-.2H502.8v-1zm-21.34 0v1h-21.28v-1zm-31.92 0v1l-21.28-.02v-1zm-31.92-.02v1h-21.28v-1zm-31.92 0v1l-21.28-.02v-1zm-31.92-.03v1H343.2v-1zm-31.92 0v1h-21.3v-1zm-48-4.64l.2.82.33.8.45.73.56.66.66.55.74.45.8.33.83.2.88.07h10.63v1h-10.66l-1-.08-1-.24-.93-.4-.87-.52-.77-.66-.67-.78-.53-.87-.4-.94-.23-1v-9.5h1zm0-18.8h-1V917.2h1zm0-28.3h-1l-.02-17.1h1zm-.02-38.45h-1v-8.7h1zm0-18.14h-1l-.02-18.88h1zm-.02-28.3h-1v-18.87h1zm0-28.3h-1l-.02-18.87h1zm-.02-28.3h-1v-9.43h1z" stroke="#3a414a" stroke-width=".05" fill="#3a414a"/><path d="M539.5 1114.03h-.5v-1h.5z" fill="#3a414a"/><path d="M539.53 1114.05h-.56V1113h.56zm-.5-1v.95h.45v-.95z" stroke="#3a414a" stroke-width=".05" fill="#3a414a"/><path d="M288.63 756.37h-9.27L284 742.1z" fill="#3a414a"/><path d="M289.32 756.87h-10.65l5.32-16.4zm-9.27-1h7.9l-3.96-12.15z" stroke="#3a414a" stroke-width=".05" fill="#3a414a"/><use xlink:href="#w" transform="matrix(1,0,0,1,249.49979112008788,869.3333333333335) translate(0 14.222222222222223)"/><path d="M640.5 1069.2h-1v-18.97h1zm0-40.3h-1v-48.8h1z" stroke="#3a414a" stroke-width=".05" fill="#3a414a"/><path d="M640.5 980.1h-1v-.5h1z" fill="#3a414a"/><path d="M640.52 980.14h-1.04v-.57h1.04zm-1-.52v.47h.96v-.48z" stroke="#3a414a" stroke-width=".05" fill="#3a414a"/><path d="M643.9 1069.55l3.6 1.5 3.1 2.38 2.4 3.12 1.5 3.6.5 3.9-.5 3.88-1.5 3.6-2.4 3.1-3.1 2.4-3.6 1.5-3.9.5-3.9-.5-3.6-1.5-3.1-2.4-2.4-3.1-1.5-3.6-.5-3.9.5-3.9 1.5-3.58 2.4-3.12 3.1-2.4 3.6-1.48 3.9-.5zm-3.9 29.5v-30m14.85 15.14h-29.7" fill="#fff"/><path d="M644.02 1069.06l3.72 1.54 3.22 2.47 2.48 3.23 1.54 3.7.52 4.04-.52 4.02-1.54 3.72-2.48 3.22-3.22 2.47-3.72 1.54-4.02.54-4.02-.53-3.72-1.53-3.22-2.47-2.48-3.22-1.54-3.72-.52-4.02.52-4.03 1.54-3.7 2.48-3.23 3.22-2.47 3.72-1.54 4.02-.53zm-3.52 15.63v13.77l3.26-.43 3.48-1.44 3-2.3 2.32-3.03 1.44-3.47.4-3.1zm-14.9 0l.4 3.1 1.44 3.47 2.3 3.02 3.02 2.3 3.48 1.44 3.26.43v-13.78zm14.9-1h13.95l-.45-3.42-1.44-3.48-2.3-3-3.02-2.33-3.48-1.44-3.26-.42zm-4.26-13.67l-3.48 1.44-3 2.32-2.32 3-1.44 3.47-.45 3.42h13.95v-14.1z" stroke="#3a414a" stroke-width=".05" fill="#3a414a"/><use xlink:href="#x" transform="matrix(1,0,0,1,616.8395061728395,1028.9013953333333) translate(0 14.222222222222223)"/><path d="M540 766a6 6 0 0 1 6-6h188a6 6 0 0 1 6 6v207.14a6 6 0 0 1-6 6H546a6 6 0 0 1-6-6z" stroke="#3a414a" fill="#fff" filter="url(#y)"/><g filter="url(#z)"><path d="M560 865.63a6 6 0 0 1 6-6h148a6 6 0 0 1 6 6v33.25a6 6 0 0 1-6 6H566a6 6 0 0 1-6-6z" stroke="#3a414a" fill="#fff3d9"/><use xlink:href="#A" transform="matrix(1,0,0,1,565,864.6339213822622) translate(22.006172839506178 22.27777777777778)"/></g><path d="M540 766a6 6 0 0 1 6-6h148a6 6 0 0 1 6 6v48a6 6 0 0 1-6 6H546a6 6 0 0 1-6-6z" stroke="#000" stroke-opacity="0" fill="#fff" fill-opacity="0"/><use xlink:href="#B" transform="matrix(1,0,0,1,545,765) translate(24.654320987654337 29.84722222222222)"/><g filter="url(#z)"><path d="M560 920.4a6 6 0 0 1 6-6h148a6 6 0 0 1 6 6v33.23a6 6 0 0 1-6 6H566a6 6 0 0 1-6-6z" stroke="#3a414a" fill="#edf5ff"/><use xlink:href="#C" transform="matrix(1,0,0,1,565,919.3850224942678) translate(8.425925925925924 22.27777777777778)"/><use xlink:href="#D" transform="matrix(1,0,0,1,565,919.3850224942678) translate(94.72222222222221 22.27777777777778)"/></g><g filter="url(#z)"><path d="M560 808a6 6 0 0 1 6-6h148a6 6 0 0 1 6 6v33.26a6 6 0 0 1-6 6H566a6 6 0 0 1-6-6z" stroke="#3a414a" fill="#fff3d9"/><use xlink:href="#E" transform="matrix(1,0,0,1,565,807.0094719382649) translate(30.06172839506172 22.27777777777778)"/></g><path d="M1035.02 869.15l1 .23.93.4.87.53.78.67.66.78.53.87.38.94.25 1 .07 194.64h-1l-.07-194.5-.2-.83-.33-.8-.45-.73-.56-.66-.67-.56-.73-.45-.8-.33-.84-.2-.88-.07h-77.5v-1h77.54zm-294.06.92v-1h169.2v1z" stroke="#3a414a" stroke-width=".05" fill="#3a414a"/><path d="M740.98 870.07h-.52v-1h.52z" fill="#3a414a"/><path d="M741 870.1h-.56v-1.06h.56zm-.5-1v.94h.45v-.95z" stroke="#3a414a" stroke-width=".05" fill="#3a414a"/><path d="M1043.9 1069.55l3.6 1.5 3.1 2.38 2.4 3.12 1.5 3.6.5 3.9-.5 3.88-1.5 3.6-2.4 3.1-3.1 2.4-3.6 1.5-3.9.5-3.9-.5-3.6-1.5-3.1-2.4-2.4-3.1-1.5-3.6-.5-3.9.5-3.9 1.5-3.58 2.4-3.12 3.1-2.4 3.6-1.48 3.9-.5zm-3.9 29.5v-30m14.85 15.14h-29.7" fill="#fff"/><path d="M1044.02 1069.06l3.72 1.54 3.22 2.47 2.48 3.23 1.54 3.7.52 4.04-.52 4.02-1.54 3.72-2.48 3.22-3.22 2.47-3.72 1.54-4.02.54-4.02-.53-3.72-1.53-3.22-2.47-2.48-3.22-1.54-3.72-.52-4.02.52-4.03 1.54-3.7 2.48-3.23 3.22-2.47 3.72-1.54 4.02-.53zm-3.52 15.63v13.77l3.26-.43 3.48-1.44 3-2.3 2.32-3.03 1.44-3.47.4-3.1zm-14.9 0l.4 3.1 1.44 3.47 2.3 3.02 3.02 2.3 3.48 1.44 3.26.43v-13.78zm14.9-1h13.95l-.45-3.42-1.44-3.48-2.3-3-3.02-2.33-3.48-1.44-3.26-.42zm-4.26-13.67l-3.48 1.44-3 2.32-2.32 3-1.44 3.47-.45 3.42h13.95v-14.1z" stroke="#3a414a" stroke-width=".05" fill="#3a414a"/><use xlink:href="#x" transform="matrix(1,0,0,1,910.172839506173,858.90139513647) translate(0 14.222222222222223)"/><g filter="url(#F)"><path d="M1240 955.14a6 6 0 0 1 6-6h188a6 6 0 0 1 6 6v48a6 6 0 0 1-6 6h-188a6 6 0 0 1-6-6z" stroke="#3a414a" fill="#f2f2ff"/><use xlink:href="#G" transform="matrix(1,0,0,1,1252,961.1361236062733) translate(26.364197530864196 22.27777777777778)"/><use xlink:href="#H" transform="matrix(1,0,0,1,1252,961.1361236062733) translate(137.29012345679013 22.27777777777778)"/></g><g filter="url(#q)"><path d="M1520 1106a6 6 0 0 1 6-6h188a6 6 0 0 1 6 6v108a6 6 0 0 1-6 6h-188a6 6 0 0 1-6-6z" stroke="#3a414a" fill="#cfe4ff"/><use xlink:href="#I" transform="matrix(1,0,0,1,1532,1112) translate(20.222222222222214 53.77777777777778)"/></g><g filter="url(#F)"><path d="M1240 1035.14a6 6 0 0 1 6-6h188a6 6 0 0 1 6 6v48a6 6 0 0 1-6 6h-188a6 6 0 0 1-6-6z" stroke="#3a414a" fill="#f2f2ff"/><use xlink:href="#G" transform="matrix(1,0,0,1,1252,1041.1361236062733) translate(24.54320987654321 22.27777777777778)"/><use xlink:href="#J" transform="matrix(1,0,0,1,1252,1041.1361236062733) translate(135.46913580246914 22.27777777777778)"/></g><path d="M1140.96 1160H1184a6 6 0 0 0 6-6V985.14a6 6 0 0 1 6-6h27.15" stroke="#3a414a" fill="none"/><path d="M1140.98 1160.5h-.52v-1h.52z" stroke="#3a414a" stroke-width=".05" fill="#3a414a"/><path d="M1237.92 979.14l-14.27 4.63v-9.27z" stroke="#3a414a" fill="#3a414a"/><path d="M1140.96 1160H1184a6 6 0 0 0 6-6v-88.86a6 6 0 0 1 6-6h27.15" stroke="#3a414a" fill="none"/><path d="M1140.98 1160.5h-.52v-1h.52z" stroke="#3a414a" stroke-width=".05" fill="#3a414a"/><path d="M1237.92 1059.14l-14.27 4.63v-9.27z" stroke="#3a414a" fill="#3a414a"/><path d="M1620.5 1236.85l-.07 18.6-.25 1.02-.4.94-.52.88-.66.78-.78.66-.87.54-.94.4-.98.22-1 .08-327.82-.04v-1l327.78.04.88-.07.84-.2.8-.34.73-.45.66-.55.55-.65.45-.74.33-.8.2-.82.07-18.5zm-580 17.6l.07.87.2.84.33.8.45.74.56.65.67.56.73.46.8.33.82.2h175v1H1045l-1-.25-.95-.4-.87-.53-.78-.66-.66-.78-.53-.87-.38-.93-.24-1-.08-1v-33.5h1z" stroke="#3a414a" stroke-width=".05" fill="#3a414a"/><path d="M1040.5 1220.98h-1v-.52h1z" fill="#3a414a"/><path d="M1040.53 1221h-1.06v-.56h1.06zm-1-.5v.45h.94v-.46z" stroke="#3a414a" stroke-width=".05" fill="#3a414a"/><path d="M1624.64 1236.35h-9.28l4.64-14.27z" fill="#3a414a"/><path d="M1625.32 1236.85h-10.64l5.32-16.4zm-9.27-1h7.9l-3.95-12.15z" stroke="#3a414a" stroke-width=".05" fill="#3a414a"/><use xlink:href="#v" transform="matrix(1,0,0,1,1220.1290760543197,1249.7965395670542) translate(0 14.222222222222223)"/><path d="M1340 948.17v-10.84m0-10.85v-21.7m0-10.83v-21.7m0-10.84v-10.83l-.07-.94-.22-.92-.35-.86-.5-.8-.6-.7-.72-.63-.8-.48-.88-.36-.9-.22h-10.76m-10.75 0l-21.5-.02m-10.74 0l-21.48-.02m-10.74 0l-21.5-.02m-10.74 0H1206l-.94-.1-.9-.2-.88-.37-.8-.48-.72-.6-.6-.73-.5-.8-.37-.88-.23-.9v-9.2m0-9.18l-.03-18.37m0-9.2l-.02-18.35m0-9.2l-.02-9.17" stroke="#3a414a" fill="none"/><path d="M1340.5 948.67h-1v-.5h1z" stroke="#3a414a" stroke-width=".05" fill="#3a414a"/><path d="M1200 742.08l4.64 14.27h-9.28z" stroke="#3a414a" fill="#3a414a"/><path d="M1110.67 1099v-9.6m0-9.62v-19.22m0-9.62v-19.22m0-9.62v-19.22m0-9.62v-19.22m0-9.62V945.2m0-9.62v-9.6l-.08-.95-.23-.9-.36-.88-.48-.8-.6-.72-.72-.6-.8-.5-.88-.36-.9-.22-13.66-.03m-13.65-.02l-13.64-.03-.93-.07-.92-.22-.86-.36-.8-.5-.72-.6-.6-.72-.5-.8-.36-.87-.22-.92v-10.53m0-10.54l-.02-21.08m0-10.54l-.02-21.07m0-10.54V809.5m-.02-10.54V777.9m0-10.54l-.02-10.54" stroke="#3a414a" fill="none"/><path d="M1111.17 1099.5h-1v-.5h1z" stroke="#3a414a" stroke-width=".05" fill="#3a414a"/><path d="M1058.66 742.05l4.64 14.27h-9.27z" stroke="#3a414a" fill="#3a414a"/><path d="M265 1026a6 6 0 0 1 6-6h178a6 6 0 0 1 6 6v268a6 6 0 0 1-6 6H271a6 6 0 0 1-6-6z" fill="#fff"/><path d="M289.94 1020.07h19.9m9.93-.02h19.88m9.94 0l19.87-.02m9.94 0h19.9m9.94 0l19.88-.02m9.94 0H449l.94.07.9.22.88.35.8.5.72.6.6.72.5.8.37.88.23.9v9.97m0 9.96v19.92m0 9.96l.02 19.93m0 9.95v19.92m0 9.96v19.92m0 9.96l.02 19.93m0 9.96v19.9m0 9.98l.02 19.92m0 9.96v19.92m0 9.96v9.96l-.07.94-.22.9-.35.88-.5.8-.6.72-.72.6-.8.5-.88.37-.9.23H440m-9.94 0h-19.9m-9.93.02h-19.88m-9.94 0l-19.87.02m-9.94 0h-19.9m-9.94 0l-19.88.02m-9.94 0H271l-.94-.07-.9-.22-.88-.35-.8-.5-.72-.6-.6-.72-.5-.8-.37-.88-.23-.9v-9.97m0-9.96v-19.92m0-9.96l-.02-19.93m0-9.95v-19.92m0-9.96v-19.92m0-9.96l-.02-19.93m0-9.96v-19.9m0-9.98l-.02-19.92m0-9.96v-19.92m0-9.96V1026l.07-.94.22-.9.35-.88.5-.8.6-.72.72-.6.8-.5.88-.37.9-.23H280" stroke="#3a414a" fill="none"/><use xlink:href="#K" transform="matrix(1,0,0,1,270,1025) translate(0 269.84560782222223)"/><use xlink:href="#L" transform="matrix(1,0,0,1,270,1025) translate(68.04938271604937 269.84560782222223)"/><path d="M835.5 1120.5h-64.73v-1h64.74zm103.5 0h-57.17v-1H939z" stroke="#3a414a" stroke-width=".05" fill="#3a414a"/><path d="M939.5 1120.5h-.5v-1h.5z" fill="#3a414a"/><path d="M939.53 1120.52h-.56v-1.05h.56zm-.5-1v.95h.45v-.95z" stroke="#3a414a" stroke-width=".05" fill="#3a414a"/><path d="M759.83 1105.5l3.6 1.5 3.1 2.4 2.4 3.1 1.5 3.6.5 3.9-.5 3.9-1.5 3.58-2.4 3.12-3.1 2.4-3.6 1.5-3.9.5-3.9-.52-3.58-1.5-3.12-2.38-2.4-3.12-1.48-3.6-.5-3.9.5-3.88 1.5-3.6 2.38-3.1 3.12-2.4 3.6-1.5 3.9-.5zm-4.04-.35v29.7m15.14-14.86h-30" fill="#fff"/><path d="M759.96 1105.02l3.72 1.54 3.22 2.47 2.47 3.22 1.54 3.72.54 4.02-.53 4.02-1.53 3.72-2.47 3.22-3.22 2.47-3.72 1.54-4.02.53-4.03-.53-3.7-1.54-3.23-2.47-2.47-3.22-1.54-3.72-.53-4.03.53-4.03 1.54-3.72 2.47-3.22 3.23-2.47 3.7-1.54 4.04-.53zm-3.67 15.47v13.94l3.4-.44 3.47-1.44 3.02-2.3 2.3-3.03 1.44-3.47.43-3.27zm-14.8 0l.43 3.26 1.44 3.47 2.32 3 3 2.33 3.47 1.44 3.12.4v-13.9zm14.8-1h14.07l-.43-3.27-1.44-3.47-2.3-3-3.03-2.33-3.47-1.44-3.4-.46zm-4.13-13.5l-3.47 1.43-3 2.3-2.33 3.03-1.44 3.47-.42 3.26h13.8v-13.92z" stroke="#3a414a" stroke-width=".05" fill="#3a414a"/><use xlink:href="#x" transform="matrix(1,0,0,1,835.5061728395062,1109.3282353689247) translate(0 14.222222222222223)"/><g filter="url(#M)"><path d="M280 1129.15a6 6 0 0 1 6-6h148a6 6 0 0 1 6 6v27.6a6 6 0 0 1-6 6H286a6 6 0 0 1-6-6z" stroke="#3a414a" fill="#fff"/><use xlink:href="#N" transform="matrix(1,0,0,1,292,1135.1476126000946) translate(7.333333333333343 14.222222222222221)"/><use xlink:href="#O" transform="matrix(1,0,0,1,292,1135.1476126000946) translate(73.4074074074074 14.222222222222221)"/></g><g filter="url(#M)"><path d="M280 1082.14a6 6 0 0 1 6-6h148a6 6 0 0 1 6 6v27.6a6 6 0 0 1-6 6H286a6 6 0 0 1-6-6z" stroke="#3a414a" fill="#fff"/><use xlink:href="#P" transform="matrix(1,0,0,1,292,1088.141868103184) translate(30.51851851851852 14.222222222222221)"/></g><g filter="url(#M)"><path d="M280 1035.14a6 6 0 0 1 6-6h148a6 6 0 0 1 6 6v27.6a6 6 0 0 1-6 6H286a6 6 0 0 1-6-6z" stroke="#3a414a" fill="#fff"/><use xlink:href="#Q" transform="matrix(1,0,0,1,292,1041.1361236062733) translate(18.64197530864198 14.222222222222221)"/></g><g filter="url(#M)"><path d="M280 1176.15a6 6 0 0 1 6-6h148a6 6 0 0 1 6 6v27.6a6 6 0 0 1-6 6H286a6 6 0 0 1-6-6z" stroke="#3a414a" fill="#fff"/><use xlink:href="#R" transform="matrix(1,0,0,1,292,1182.1533570970053) translate(8.320987654321002 14.222222222222221)"/><use xlink:href="#S" transform="matrix(1,0,0,1,292,1182.1533570970053) translate(74.44444444444444 14.222222222222221)"/></g><g filter="url(#M)"><path d="M280 1223.16a6 6 0 0 1 6-6h148a6 6 0 0 1 6 6v27.6a6 6 0 0 1-6 6H286a6 6 0 0 1-6-6z" stroke="#3a414a" fill="#fff"/><use xlink:href="#T" transform="matrix(1,0,0,1,292,1229.159101593916) translate(13.728395061728406 14.222222222222221)"/><use xlink:href="#U" transform="matrix(1,0,0,1,292,1229.159101593916) translate(87.75308641975309 14.222222222222221)"/></g><path d="M995 580.7l1 .24.95.4.87.52.78.67.66.77.53.87.38.94.24 1 .08 1v71.94h-1v-71.9l-.07-.88-.2-.84-.33-.8-.45-.73-.56-.66-.67-.56-.73-.46-.8-.33-.82-.2-43.62-.02v-1zM780.57 576l.2.82.33.8.45.74.56.65.67.57.73.45.8.33.84.2.88.07 122.82.05v1l-122.86-.05-1-.07-1-.24-.93-.38-.87-.54-.78-.66-.66-.77-.53-.87-.38-.95-.25-1-.07-43.04 1-.02z" stroke="#3a414a" stroke-width=".05" fill="#3a414a"/><path d="M1000.5 659.54h-1v-.52h1z" fill="#3a414a"/><path d="M1000.52 659.56h-1.04V659h1.04zm-1-.5v.45h.96v-.45z" stroke="#3a414a" stroke-width=".05" fill="#3a414a"/><path d="M794.85 518.27L780 533.42l-14.85-15.15L780 503.42z" fill="#fff"/><path d="M795.55 518.26L780 534.13l-15.55-15.87L780 502.7zm-29.7 0L780 532.7l14.15-14.43L780 504.12z" stroke="#3a414a" stroke-width=".05" fill="#3a414a"/><use xlink:href="#t" transform="matrix(1,0,0,1,908.8422512514552,570.4569573392984) translate(0 14.222222222222223)"/><path d="M1620.5 1099.04h-1v-9.74h1zm0-19.47h-1v-19.47h1zm0-29.2h-1v-19.48h1zm0-29.2h-1v-19.48h1zm0-29.22h-1v-19.47h1zm0-29.2h-1v-19.47h1zm0-29.2h-1v-7.02h1zm0-29.2h-1v-19.48h1zm0-29.2h-1v-19.48h1zm0-29.22h-1v-19.47h1zm0-29.2h-1v-19.47h1zm0-29.2h-1v-19.48h1zm0-29.2h-1v-9.75h1z" stroke="#3a414a" stroke-width=".05" fill="#3a414a"/><path d="M1620.5 1099.54h-1v-.52h1z" fill="#3a414a"/><path d="M1620.53 1099.56h-1.06v-.56h1.06zm-1-.5v.45h.94v-.45z" stroke="#3a414a" stroke-width=".05" fill="#3a414a"/><path d="M1624.64 748.08h-9.28l4.64-14.26z" fill="#3a414a"/><path d="M1625.32 748.58h-10.64l5.32-16.38zm-9.27-1h7.9l-3.95-12.15z" stroke="#3a414a" stroke-width=".05" fill="#3a414a"/><use xlink:href="#o" transform="matrix(1,0,0,1,1585.5061728395062,905.2009790003139) translate(0 14.222222222222223)"/><path d="M813.46 1030.55l-96.34.02-.82.2-.8.33-.73.45-.65.56-.56.67-.46.73-.33.8-.2.84-.07.88v63h-1v-63.04l.08-1 .24-1 .4-.93.52-.87.67-.78.78-.66.87-.53.94-.38 1-.25 96.46-.02zm187.04-259.7l-.07 254.15-.25 1-.4.95-.52.87-.66.78-.78.66-.87.53-.94.38-.98.24-1 .08-138.14.04v-1l138.1-.04.88-.07.84-.2.8-.33.73-.45.66-.56.55-.67.45-.73.33-.8.2-.82.07-254.04z" stroke="#3a414a" stroke-width=".05" fill="#3a414a"/><path d="M712.5 1099.5h-1v-.5h1z" fill="#3a414a"/><path d="M712.53 1099.53h-1.05v-.56h1.05zm-1-.5v.45h.95v-.46z" stroke="#3a414a" stroke-width=".05" fill="#3a414a"/><path d="M1014.85 756.02L1000 771.17l-14.85-15.15 14.85-14.85z" fill="#fff"/><path d="M1015.55 756.02L1000 771.88l-15.55-15.86 15.55-15.56zm-29.7 0l14.15 14.44 14.15-14.44-14.15-14.14z" stroke="#3a414a" stroke-width=".05" fill="#3a414a"/><use xlink:href="#t" transform="matrix(1,0,0,1,813.4567901234568,1019.3333333333334) translate(0 14.222222222222223)"/><path d="M1140.96 1159.5h-1V905.33h1zm0-275.5h-1V770.87h1z" stroke="#3a414a" stroke-width=".05" fill="#3a414a"/><path fill="#3a414a"/><path stroke="#3a414a" stroke-width=".05" fill="#3a414a"/><path d="M1155.3 756.05l-14.84 15.15-14.85-15.15 14.86-14.85z" fill="#fff"/><path d="M1156.02 756.05l-15.56 15.87-15.55-15.87 15.56-15.56zm-29.7 0l14.14 14.44 14.15-14.45-14.14-14.14z" stroke="#3a414a" stroke-width=".05" fill="#3a414a"/><use xlink:href="#t" transform="matrix(1,0,0,1,1119.2534646657348,884.0010000000001) translate(0 14.222222222222223)"/><path d="M1267.5 1196.5h-96.68v-1h96.7zm251.56 0h-205.23v-1h205.23z" stroke="#3a414a" stroke-width=".05" fill="#3a414a"/><path d="M1519.56 1196.5h-.5v-1h.5z" fill="#3a414a"/><path d="M1519.6 1196.52h-.58v-1.05h.57zm-.53-1v.95h.47v-.95z" stroke="#3a414a" stroke-width=".05" fill="#3a414a"/><path d="M1159.88 1181.5l3.6 1.5 3.1 2.4 2.4 3.1 1.5 3.6.5 3.9-.5 3.9-1.5 3.58-2.4 3.12-3.1 2.4-3.6 1.48-3.9.5-3.88-.5-3.6-1.5-3.12-2.38-2.4-3.12-1.48-3.6-.5-3.9.5-3.88 1.5-3.6 2.38-3.1 3.12-2.4 3.6-1.5 3.9-.5zm-4.04-.35v29.7m15.15-14.86h-30" fill="#fff"/><path d="M1160 1181.02l3.73 1.54 3.22 2.47 2.47 3.22 1.55 3.72.52 4.02-.54 4.02-1.54 3.72-2.47 3.22-3.22 2.47-3.72 1.54-4 .53-4.04-.53-3.7-1.54-3.24-2.47-2.47-3.22-1.54-3.72-.52-4.03.53-4.03 1.55-3.72 2.47-3.22 3.23-2.47 3.72-1.54 4.02-.53zm-3.66 15.47v13.94l3.4-.44 3.48-1.44 3.02-2.3 2.3-3.03 1.45-3.47.42-3.27zm-14.78 0l.42 3.26 1.44 3.47 2.32 3 3 2.33 3.5 1.44 3.1.4v-13.9zm14.78-1h14.08l-.43-3.27-1.45-3.47-2.3-3-3.03-2.33-3.47-1.44-3.4-.46zm-4.1-13.5l-3.5 1.43-3 2.3-2.3 3.03-1.46 3.47-.42 3.26h13.78v-13.92z" stroke="#3a414a" stroke-width=".05" fill="#3a414a"/><use xlink:href="#V" transform="matrix(1,0,0,1,1267.5061728395065,1185.3282003433815) translate(0 14.222222222222223)"/><path d="M1568.67 1075l-.25 1-.4.95-.52.87-.66.78-.78.66-.87.53-.95.38-1 .24-1 .08-87.13.07-.82.2-.8.33-.73.45-.66.56-.55.67-.45.73-.33.8-.2.84-.07.88-.07 68.98-.25 1-.4.95-.52.87-.66.78-.78.66-.87.53-.94.38-.98.24-1 .08h-323.06v-1h323.02l.88-.07.84-.2.8-.33.73-.45.66-.56.55-.67.45-.73.33-.8.2-.82.07-68.9.08-1 .24-1 .4-.93.52-.87.66-.78.78-.66.87-.53.94-.38 1-.25 87.22-.07.88-.07.84-.2.8-.33.73-.45.66-.56.56-.67.44-.73.33-.8.2-.82.05-244.2h1zm.07-312.4v46.73h-1V762.6z" stroke="#3a414a" stroke-width=".05" fill="#3a414a"/><path d="M1140.98 1160.5h-.52v-1h.52z" fill="#3a414a"/><path d="M1141 1160.53h-.56v-1.06h.56zm-.5-1v.94h.45v-.94z" stroke="#3a414a" stroke-width=".05" fill="#3a414a"/><path d="M1583.1 747.78l-14.86 15.15-14.85-15.15 14.84-14.85z" fill="#fff"/><path d="M1583.8 747.78l-15.56 15.87-15.55-15.87 15.54-15.56zm-29.7 0l14.14 14.44 14.14-14.44-14.14-14.14z" stroke="#3a414a" stroke-width=".05" fill="#3a414a"/><use xlink:href="#t" transform="matrix(1,0,0,1,1547.0292654048328,809.3333333333335) translate(0 14.222222222222223)"/><path d="M93.83 1099.05h-1V850.67h1zm0-269.72h-1v-23h1zM209.16 595.8l-110.7.06-.83.2-.8.33-.73.44-.65.56-.57.66-.45.73-.33.8-.2.83-.07.88v141.02h-1V601.27l.08-1 .25-1 .4-.93.52-.87.67-.78.77-.67.88-.54.94-.4 1.02-.24 110.82-.07z" stroke="#3a414a" stroke-width=".05" fill="#3a414a"/><path d="M93.83 1099.55h-1v-.5h1z" fill="#3a414a"/><path d="M93.86 1099.57H92.8v-.56h1.06zm-1-.5v.46h.95v-.47z" stroke="#3a414a" stroke-width=".05" fill="#3a414a"/><path d="M238.83 595.3l-14.85 14.84-15.15-14.85 15.15-14.86z" fill="#fff"/><path d="M239.54 595.3l-15.56 15.54-15.86-15.55 15.86-15.57zm-30 0l14.44 14.13 14.14-14.14-14.14-14.16z" stroke="#3a414a" stroke-width=".05" fill="#3a414a"/><use xlink:href="#W" transform="matrix(1,0,0,1,72.12323333695588,742.3168082090604) translate(0 14.222222222222223)"/><use xlink:href="#X" transform="matrix(1,0,0,1,72.12323333695588,742.3168082090604) translate(0 35.55555555555556)"/><use xlink:href="#Y" transform="matrix(1,0,0,1,72.12323333695588,742.3168082090604) translate(0 56.88888888888889)"/><defs><path fill="#3a414a" d="M153-248C145-148 188 4 80 4 36 3 13-21 6-62l32-5c4 25 16 42 43 43 27 0 39-20 39-49v-147H72v-28h81" id="Z"/><path fill="#3a414a" d="M205 0l-28-72H64L36 0H1l101-248h38L239 0h-34zm-38-99l-47-123c-12 45-31 82-46 123h93" id="aa"/><path fill="#3a414a" d="M195 0l-74-108L45 0H8l94-129-87-119h37l69 98 67-98h37l-84 118L233 0h-38" id="ab"/><path fill="#3a414a" d="M16-82v-28h88v28H16" id="ac"/><path fill="#3a414a" d="M233-177c-1 41-23 64-60 70L243 0h-38l-65-103H63V0H30v-248c88 3 205-21 203 71zM63-129c60-2 137 13 137-47 0-61-80-42-137-45v92" id="ad"/><path fill="#3a414a" d="M185-189c-5-48-123-54-124 2 14 75 158 14 163 119 3 78-121 87-175 55-17-10-28-26-33-46l33-7c5 56 141 63 141-1 0-78-155-14-162-118-5-82 145-84 179-34 5 7 8 16 11 25" id="ae"/><g id="b"><use transform="matrix(0.06172839506172839,0,0,0.06172839506172839,0,0)" xlink:href="#Z"/><use transform="matrix(0.06172839506172839,0,0,0.06172839506172839,11.11111111111111,0)" xlink:href="#aa"/><use transform="matrix(0.06172839506172839,0,0,0.06172839506172839,25.925925925925924,0)" xlink:href="#ab"/><use transform="matrix(0.06172839506172839,0,0,0.06172839506172839,40.74074074074073,0)" xlink:href="#ac"/><use transform="matrix(0.06172839506172839,0,0,0.06172839506172839,48.08641975308641,0)" xlink:href="#ad"/><use transform="matrix(0.06172839506172839,0,0,0.06172839506172839,64.07407407407406,0)" xlink:href="#ae"/></g><path fill="#3a414a" d="M30-248c87 1 191-15 191 75 0 78-77 80-158 76V0H30v-248zm33 125c57 0 124 11 124-50 0-59-68-47-124-48v98" id="af"/><path fill="#3a414a" d="M33 0v-248h34V0H33" id="ag"/><g id="c"><use transform="matrix(0.06172839506172839,0,0,0.06172839506172839,0,0)" xlink:href="#aa"/><use transform="matrix(0.06172839506172839,0,0,0.06172839506172839,14.814814814814813,0)" xlink:href="#af"/><use transform="matrix(0.06172839506172839,0,0,0.06172839506172839,29.629629629629626,0)" xlink:href="#ag"/></g><path fill="#3a414a" d="M117-194c89-4 53 116 60 194h-32v-121c0-31-8-49-39-48C34-167 62-67 57 0H25l-1-190h30c1 10-1 24 2 32 11-22 29-35 61-36" id="ah"/><path fill="#3a414a" d="M59-47c-2 24 18 29 38 22v24C64 9 27 4 27-40v-127H5v-23h24l9-43h21v43h35v23H59v120" id="ai"/><path fill="#3a414a" d="M100-194c63 0 86 42 84 106H49c0 40 14 67 53 68 26 1 43-12 49-29l28 8c-11 28-37 45-77 45C44 4 14-33 15-96c1-61 26-98 85-98zm52 81c6-60-76-77-97-28-3 7-6 17-6 28h103" id="aj"/><path fill="#3a414a" d="M114-163C36-179 61-72 57 0H25l-1-190h30c1 12-1 29 2 39 6-27 23-49 58-41v29" id="ak"/><path fill="#3a414a" d="M101-234c-31-9-42 10-38 44h38v23H63V0H32v-167H5v-23h27c-7-52 17-82 69-68v24" id="al"/><path fill="#3a414a" d="M141-36C126-15 110 5 73 4 37 3 15-17 15-53c-1-64 63-63 125-63 3-35-9-54-41-54-24 1-41 7-42 31l-33-3c5-37 33-52 76-52 45 0 72 20 72 64v82c-1 20 7 32 28 27v20c-31 9-61-2-59-35zM48-53c0 20 12 33 32 33 41-3 63-29 60-74-43 2-92-5-92 41" id="am"/><path fill="#3a414a" d="M96-169c-40 0-48 33-48 73s9 75 48 75c24 0 41-14 43-38l32 2c-6 37-31 61-74 61-59 0-76-41-82-99-10-93 101-131 147-64 4 7 5 14 7 22l-32 3c-4-21-16-35-41-35" id="an"/><path fill="#3a414a" d="M135-143c-3-34-86-38-87 0 15 53 115 12 119 90S17 21 10-45l28-5c4 36 97 45 98 0-10-56-113-15-118-90-4-57 82-63 122-42 12 7 21 19 24 35" id="ao"/><g id="d"><use transform="matrix(0.06172839506172839,0,0,0.06172839506172839,0,0)" xlink:href="#ag"/><use transform="matrix(0.06172839506172839,0,0,0.06172839506172839,6.172839506172839,0)" xlink:href="#ah"/><use transform="matrix(0.06172839506172839,0,0,0.06172839506172839,18.51851851851852,0)" xlink:href="#ai"/><use transform="matrix(0.06172839506172839,0,0,0.06172839506172839,24.691358024691358,0)" xlink:href="#aj"/><use transform="matrix(0.06172839506172839,0,0,0.06172839506172839,37.03703703703704,0)" xlink:href="#ak"/><use transform="matrix(0.06172839506172839,0,0,0.06172839506172839,44.382716049382715,0)" xlink:href="#al"/><use transform="matrix(0.06172839506172839,0,0,0.06172839506172839,50.55555555555556,0)" xlink:href="#am"/><use transform="matrix(0.06172839506172839,0,0,0.06172839506172839,62.901234567901234,0)" xlink:href="#an"/><use transform="matrix(0.06172839506172839,0,0,0.06172839506172839,74.01234567901234,0)" xlink:href="#aj"/><use transform="matrix(0.06172839506172839,0,0,0.06172839506172839,86.35802469135803,0)" xlink:href="#ao"/></g><filter id="a" filterUnits="objectBoundingBox" x="-.06" y="-.05" width="1.13" height="1.25"><feOffset result="offOut" in="SourceAlpha" dy="6"/><feGaussianBlur result="blurOut" in="offOut" stdDeviation="5"/><feColorMatrix result="colorOut" in="blurOut" values="0 0 0 0 0 0 0 0 0 0 0 0 0 0 0 0 0 0 0.5019607843137255 0"/><feBlend in="SourceGraphic" in2="colorOut"/></filter><path fill="#3a414a" d="M108 0H70L1-190h34L89-25l56-165h34" id="ap"/><path fill="#3a414a" d="M24-231v-30h32v30H24zM24 0v-190h32V0H24" id="aq"/><g id="e"><use transform="matrix(0.06172839506172839,0,0,0.06172839506172839,0,0)" xlink:href="#ae"/><use transform="matrix(0.06172839506172839,0,0,0.06172839506172839,14.814814814814813,0)" xlink:href="#aj"/><use transform="matrix(0.06172839506172839,0,0,0.06172839506172839,27.160493827160494,0)" xlink:href="#ak"/><use transform="matrix(0.06172839506172839,0,0,0.06172839506172839,34.50617283950617,0)" xlink:href="#ap"/><use transform="matrix(0.06172839506172839,0,0,0.06172839506172839,45.61728395061728,0)" xlink:href="#aq"/><use transform="matrix(0.06172839506172839,0,0,0.06172839506172839,50.49382716049382,0)" xlink:href="#an"/><use transform="matrix(0.06172839506172839,0,0,0.06172839506172839,61.60493827160494,0)" xlink:href="#aj"/></g><path fill="#3a414a" d="M115-194c55 1 70 41 70 98S169 2 115 4C84 4 66-9 55-30l1 105H24l-1-265h31l2 30c10-21 28-34 59-34zm-8 174c40 0 45-34 45-75s-6-73-45-74c-42 0-51 32-51 76 0 43 10 73 51 73" id="ar"/><path fill="#3a414a" d="M100-194c62-1 85 37 85 99 1 63-27 99-86 99S16-35 15-95c0-66 28-99 85-99zM99-20c44 1 53-31 53-75 0-43-8-75-51-75s-53 32-53 75 10 74 51 75" id="as"/><path fill="#3a414a" d="M179-190L93 31C79 59 56 82 12 73V49c39 6 53-20 64-50L1-190h34L92-34l54-156h33" id="at"/><g id="f"><use transform="matrix(0.06172839506172839,0,0,0.06172839506172839,0,0)" xlink:href="#ad"/><use transform="matrix(0.06172839506172839,0,0,0.06172839506172839,15.987654320987653,0)" xlink:href="#aj"/><use transform="matrix(0.06172839506172839,0,0,0.06172839506172839,28.333333333333332,0)" xlink:href="#ar"/><use transform="matrix(0.06172839506172839,0,0,0.06172839506172839,40.67901234567901,0)" xlink:href="#as"/><use transform="matrix(0.06172839506172839,0,0,0.06172839506172839,53.02469135802469,0)" xlink:href="#ao"/><use transform="matrix(0.06172839506172839,0,0,0.06172839506172839,64.1358024691358,0)" xlink:href="#aq"/><use transform="matrix(0.06172839506172839,0,0,0.06172839506172839,69.01234567901234,0)" xlink:href="#ai"/><use transform="matrix(0.06172839506172839,0,0,0.06172839506172839,75.18518518518518,0)" xlink:href="#as"/><use transform="matrix(0.06172839506172839,0,0,0.06172839506172839,87.53086419753086,0)" xlink:href="#ak"/><use transform="matrix(0.06172839506172839,0,0,0.06172839506172839,94.87654320987654,0)" xlink:href="#at"/></g><path fill="#3a414a" d="M240 0l2-218c-23 76-54 145-80 218h-23L58-218 59 0H30v-248h44l77 211c21-75 51-140 76-211h43V0h-30" id="au"/><path fill="#3a414a" d="M85-194c31 0 48 13 60 33l-1-100h32l1 261h-30c-2-10 0-23-3-31C134-8 116 4 85 4 32 4 16-35 15-94c0-66 23-100 70-100zm9 24c-40 0-46 34-46 75 0 40 6 74 45 74 42 0 51-32 51-76 0-42-9-74-50-73" id="av"/><path fill="#3a414a" d="M24 0v-261h32V0H24" id="aw"/><g id="h"><use transform="matrix(0.06172839506172839,0,0,0.06172839506172839,0,0)" xlink:href="#au"/><use transform="matrix(0.06172839506172839,0,0,0.06172839506172839,18.456790123456788,0)" xlink:href="#as"/><use transform="matrix(0.06172839506172839,0,0,0.06172839506172839,30.80246913580247,0)" xlink:href="#av"/><use transform="matrix(0.06172839506172839,0,0,0.06172839506172839,43.148148148148145,0)" xlink:href="#aj"/><use transform="matrix(0.06172839506172839,0,0,0.06172839506172839,55.49382716049382,0)" xlink:href="#aw"/></g><filter id="g" filterUnits="objectBoundingBox" x="-.06" y="-.06" width="1.13" height="1.28"><feOffset result="offOut" in="SourceAlpha" dy="6"/><feGaussianBlur result="blurOut" in="offOut" stdDeviation="5"/><feColorMatrix result="colorOut" in="blurOut" values="0 0 0 0 0 0 0 0 0 0 0 0 0 0 0 0 0 0 0.5019607843137255 0"/><feBlend in="SourceGraphic" in2="colorOut"/></filter><path fill="#3a414a" d="M212-179c-10-28-35-45-73-45-59 0-87 40-87 99 0 60 29 101 89 101 43 0 62-24 78-52l27 14C228-24 195 4 139 4 59 4 22-46 18-125c-6-104 99-153 187-111 19 9 31 26 39 46" id="ax"/><g id="j"><use transform="matrix(0.06172839506172839,0,0,0.06172839506172839,0,0)" xlink:href="#ax"/><use transform="matrix(0.06172839506172839,0,0,0.06172839506172839,15.987654320987653,0)" xlink:href="#aw"/><use transform="matrix(0.06172839506172839,0,0,0.06172839506172839,20.864197530864196,0)" xlink:href="#aq"/><use transform="matrix(0.06172839506172839,0,0,0.06172839506172839,25.74074074074074,0)" xlink:href="#aj"/><use transform="matrix(0.06172839506172839,0,0,0.06172839506172839,38.08641975308642,0)" xlink:href="#ah"/><use transform="matrix(0.06172839506172839,0,0,0.06172839506172839,50.432098765432094,0)" xlink:href="#ai"/></g><filter id="i" filterUnits="objectBoundingBox" x="-.06" y="-.03" width="1.13" height="1.17"><feOffset result="offOut" in="SourceAlpha" dy="6"/><feGaussianBlur result="blurOut" in="offOut" stdDeviation="5"/><feColorMatrix result="colorOut" in="blurOut" values="0 0 0 0 0 0 0 0 0 0 0 0 0 0 0 0 0 0 0.5019607843137255 0"/><feBlend in="SourceGraphic" in2="colorOut"/></filter><path fill="#3a414a" d="M30 0v-248h187v28H63v79h144v27H63v87h162V0H30" id="ay"/><g id="l"><use transform="matrix(0.06172839506172839,0,0,0.06172839506172839,0,0)" xlink:href="#ay"/><use transform="matrix(0.06172839506172839,0,0,0.06172839506172839,14.814814814814813,0)" xlink:href="#ah"/><use transform="matrix(0.06172839506172839,0,0,0.06172839506172839,27.160493827160494,0)" xlink:href="#ai"/><use transform="matrix(0.06172839506172839,0,0,0.06172839506172839,33.333333333333336,0)" xlink:href="#aq"/><use transform="matrix(0.06172839506172839,0,0,0.06172839506172839,38.20987654320988,0)" xlink:href="#ai"/><use transform="matrix(0.06172839506172839,0,0,0.06172839506172839,44.38271604938272,0)" xlink:href="#at"/></g><g id="m"><use transform="matrix(0.06172839506172839,0,0,0.06172839506172839,0,0)" xlink:href="#au"/><use transform="matrix(0.06172839506172839,0,0,0.06172839506172839,18.456790123456788,0)" xlink:href="#as"/><use transform="matrix(0.06172839506172839,0,0,0.06172839506172839,30.80246913580247,0)" xlink:href="#av"/><use transform="matrix(0.06172839506172839,0,0,0.06172839506172839,43.148148148148145,0)" xlink:href="#aj"/><use transform="matrix(0.06172839506172839,0,0,0.06172839506172839,55.49382716049382,0)" xlink:href="#aw"/></g><filter id="k" filterUnits="objectBoundingBox" x="-.06" y="-.07" width="1.13" height="1.34"><feOffset result="offOut" in="SourceAlpha" dy="6"/><feGaussianBlur result="blurOut" in="offOut" stdDeviation="5"/><feColorMatrix result="colorOut" in="blurOut" values="0 0 0 0 0 0 0 0 0 0 0 0 0 0 0 0 0 0 0.5019607843137255 0"/><feBlend in="SourceGraphic" in2="colorOut"/></filter><path fill="#3a414a" d="M30-248c118-7 216 8 213 122C240-48 200 0 122 0H30v-248zM63-27c89 8 146-16 146-99s-60-101-146-95v194" id="az"/><path fill="#3a414a" d="M127-220V0H93v-220H8v-28h204v28h-85" id="aA"/><path fill="#3a414a" d="M140-251c81 0 123 46 123 126C263-46 219 4 140 4 59 4 17-45 17-125s42-126 123-126zm0 227c63 0 89-41 89-101s-29-99-89-99c-61 0-89 39-89 99S79-25 140-24" id="aB"/><g id="n"><use transform="matrix(0.06172839506172839,0,0,0.06172839506172839,0,0)" xlink:href="#az"/><use transform="matrix(0.06172839506172839,0,0,0.06172839506172839,15.987654320987653,0)" xlink:href="#aA"/><use transform="matrix(0.06172839506172839,0,0,0.06172839506172839,29.074074074074073,0)" xlink:href="#aB"/></g><path fill="#333" d="M24 0v-248h195v40H76v63h132v40H76v65h150V0H24" id="aC"/><path fill="#333" d="M144 0l-44-69L55 0H2l70-98-66-92h53l41 62 40-62h54l-67 91 71 99h-54" id="aD"/><path fill="#333" d="M115-3C79 11 28 4 28-45v-112H4v-33h27l15-45h31v45h36v33H77v99c-1 23 16 31 38 25v30" id="aE"/><path fill="#333" d="M185-48c-13 30-37 53-82 52C43 2 14-33 14-96s30-98 90-98c62 0 83 45 84 108H66c0 31 8 55 39 56 18 0 30-7 34-22zm-45-69c5-46-57-63-70-21-2 6-4 13-4 21h74" id="aF"/><path fill="#333" d="M135-194c87-1 58 113 63 194h-50c-7-57 23-157-34-157-59 0-34 97-39 157H25l-1-190h47c2 12-1 28 3 38 12-26 28-41 61-42" id="aG"/><path fill="#333" d="M88-194c31-1 46 15 58 34l-1-101h50l1 261h-48c-2-10 0-23-3-31C134-8 116 4 84 4 32 4 16-41 15-95c0-56 19-97 73-99zm17 164c33 0 40-30 41-66 1-37-9-64-41-64s-38 30-39 65c0 43 13 65 39 65" id="aH"/><path fill="#333" d="M137-138c1-29-70-34-71-4 15 46 118 7 119 86 1 83-164 76-172 9l43-7c4 19 20 25 44 25 33 8 57-30 24-41C81-84 22-81 20-136c-2-80 154-74 161-7" id="aI"/><g id="o"><use transform="matrix(0.04938271604938272,0,0,0.04938271604938272,0,0)" xlink:href="#aC"/><use transform="matrix(0.04938271604938272,0,0,0.04938271604938272,11.851851851851853,0)" xlink:href="#aD"/><use transform="matrix(0.04938271604938272,0,0,0.04938271604938272,21.7283950617284,0)" xlink:href="#aE"/><use transform="matrix(0.04938271604938272,0,0,0.04938271604938272,27.604938271604947,0)" xlink:href="#aF"/><use transform="matrix(0.04938271604938272,0,0,0.04938271604938272,37.48148148148149,0)" xlink:href="#aG"/><use transform="matrix(0.04938271604938272,0,0,0.04938271604938272,48.296296296296305,0)" xlink:href="#aH"/><use transform="matrix(0.04938271604938272,0,0,0.04938271604938272,59.111111111111114,0)" xlink:href="#aI"/></g><g id="p"><use transform="matrix(0.06172839506172839,0,0,0.06172839506172839,0,0)" xlink:href="#au"/><use transform="matrix(0.06172839506172839,0,0,0.06172839506172839,18.456790123456788,0)" xlink:href="#am"/><use transform="matrix(0.06172839506172839,0,0,0.06172839506172839,30.80246913580247,0)" xlink:href="#ar"/><use transform="matrix(0.06172839506172839,0,0,0.06172839506172839,43.148148148148145,0)" xlink:href="#ar"/><use transform="matrix(0.06172839506172839,0,0,0.06172839506172839,55.49382716049382,0)" xlink:href="#aj"/><use transform="matrix(0.06172839506172839,0,0,0.06172839506172839,67.8395061728395,0)" xlink:href="#ak"/></g><g id="r"><use transform="matrix(0.06172839506172839,0,0,0.06172839506172839,0,0)" xlink:href="#au"/><use transform="matrix(0.06172839506172839,0,0,0.06172839506172839,18.456790123456788,0)" xlink:href="#at"/><use transform="matrix(0.06172839506172839,0,0,0.06172839506172839,29.5679012345679,0)" xlink:href="#az"/><use transform="matrix(0.06172839506172839,0,0,0.06172839506172839,45.55555555555555,0)" xlink:href="#ai"/><use transform="matrix(0.06172839506172839,0,0,0.06172839506172839,51.72839506172839,0)" xlink:href="#as"/><use transform="matrix(0.06172839506172839,0,0,0.06172839506172839,64.07407407407408,0)" xlink:href="#ad"/><use transform="matrix(0.06172839506172839,0,0,0.06172839506172839,80.06172839506173,0)" xlink:href="#aj"/><use transform="matrix(0.06172839506172839,0,0,0.06172839506172839,92.40740740740742,0)" xlink:href="#ao"/><use transform="matrix(0.06172839506172839,0,0,0.06172839506172839,103.51851851851853,0)" xlink:href="#as"/><use transform="matrix(0.06172839506172839,0,0,0.06172839506172839,115.86419753086422,0)" xlink:href="#ak"/><use transform="matrix(0.06172839506172839,0,0,0.06172839506172839,123.2098765432099,0)" xlink:href="#an"/><use transform="matrix(0.06172839506172839,0,0,0.06172839506172839,134.32098765432102,0)" xlink:href="#aj"/></g><filter id="q" filterUnits="objectBoundingBox" x="-.05" y="-.03" width="1.1" height="1.17"><feOffset result="offOut" in="SourceAlpha" dy="6"/><feGaussianBlur result="blurOut" in="offOut" stdDeviation="5"/><feColorMatrix result="colorOut" in="blurOut" values="0 0 0 0 0 0 0 0 0 0 0 0 0 0 0 0 0 0 0.5019607843137255 0"/><feBlend in="SourceGraphic" in2="colorOut"/></filter><g id="s"><use transform="matrix(0.06172839506172839,0,0,0.06172839506172839,0,0)" xlink:href="#aB"/><use transform="matrix(0.06172839506172839,0,0,0.06172839506172839,17.28395061728395,0)" xlink:href="#ar"/><use transform="matrix(0.06172839506172839,0,0,0.06172839506172839,29.629629629629626,0)" xlink:href="#aj"/><use transform="matrix(0.06172839506172839,0,0,0.06172839506172839,41.9753086419753,0)" xlink:href="#ah"/><use transform="matrix(0.06172839506172839,0,0,0.06172839506172839,54.32098765432098,0)" xlink:href="#aa"/><use transform="matrix(0.06172839506172839,0,0,0.06172839506172839,69.1358024691358,0)" xlink:href="#af"/><use transform="matrix(0.06172839506172839,0,0,0.06172839506172839,83.9506172839506,0)" xlink:href="#ag"/></g><path fill="#333" d="M238-95c0 69-44 99-111 99C63 4 22-25 22-93v-155h51v151c-1 38 19 59 55 60 90 1 49-130 58-211h52v153" id="aJ"/><g id="t"><use transform="matrix(0.04938271604938272,0,0,0.04938271604938272,0,0)" xlink:href="#aJ"/><use transform="matrix(0.04938271604938272,0,0,0.04938271604938272,12.790123456790125,0)" xlink:href="#aI"/><use transform="matrix(0.04938271604938272,0,0,0.04938271604938272,22.66666666666667,0)" xlink:href="#aF"/><use transform="matrix(0.04938271604938272,0,0,0.04938271604938272,32.543209876543216,0)" xlink:href="#aI"/></g><path fill="#3a414a" d="M210-169c-67 3-38 105-44 169h-31v-121c0-29-5-50-35-48C34-165 62-65 56 0H25l-1-190h30c1 10-1 24 2 32 10-44 99-50 107 0 11-21 27-35 58-36 85-2 47 119 55 194h-31v-121c0-29-5-49-35-48" id="aK"/><g id="u"><use transform="matrix(0.06172839506172839,0,0,0.06172839506172839,0,0)" xlink:href="#au"/><use transform="matrix(0.06172839506172839,0,0,0.06172839506172839,18.456790123456788,0)" xlink:href="#at"/><use transform="matrix(0.06172839506172839,0,0,0.06172839506172839,29.5679012345679,0)" xlink:href="#ae"/><use transform="matrix(0.06172839506172839,0,0,0.06172839506172839,44.38271604938271,0)" xlink:href="#aj"/><use transform="matrix(0.06172839506172839,0,0,0.06172839506172839,56.728395061728385,0)" xlink:href="#ak"/><use transform="matrix(0.06172839506172839,0,0,0.06172839506172839,64.07407407407406,0)" xlink:href="#ap"/><use transform="matrix(0.06172839506172839,0,0,0.06172839506172839,75.18518518518518,0)" xlink:href="#aq"/><use transform="matrix(0.06172839506172839,0,0,0.06172839506172839,80.06172839506172,0)" xlink:href="#an"/><use transform="matrix(0.06172839506172839,0,0,0.06172839506172839,91.17283950617283,0)" xlink:href="#aj"/><use transform="matrix(0.06172839506172839,0,0,0.06172839506172839,103.51851851851852,0)" xlink:href="#ag"/><use transform="matrix(0.06172839506172839,0,0,0.06172839506172839,109.69135802469135,0)" xlink:href="#aK"/><use transform="matrix(0.06172839506172839,0,0,0.06172839506172839,128.14814814814815,0)" xlink:href="#ar"/><use transform="matrix(0.06172839506172839,0,0,0.06172839506172839,140.49382716049382,0)" xlink:href="#aw"/></g><path fill="#333" d="M24 0v-248h52V0H24" id="aL"/><path fill="#333" d="M128 0H69L1-190h53L99-40l48-150h52" id="aM"/><path fill="#333" d="M110-194c64 0 96 36 96 99 0 64-35 99-97 99-61 0-95-36-95-99 0-62 34-99 96-99zm-1 164c35 0 45-28 45-65 0-40-10-65-43-65-34 0-45 26-45 65 0 36 10 65 43 65" id="aN"/><path fill="#333" d="M147 0L96-86 75-71V0H25v-261h50v150l67-79h53l-66 74L201 0h-54" id="aO"/><g id="v"><use transform="matrix(0.04938271604938272,0,0,0.04938271604938272,0,0)" xlink:href="#aL"/><use transform="matrix(0.04938271604938272,0,0,0.04938271604938272,4.938271604938272,0)" xlink:href="#aG"/><use transform="matrix(0.04938271604938272,0,0,0.04938271604938272,15.753086419753087,0)" xlink:href="#aM"/><use transform="matrix(0.04938271604938272,0,0,0.04938271604938272,25.629629629629633,0)" xlink:href="#aN"/><use transform="matrix(0.04938271604938272,0,0,0.04938271604938272,36.44444444444445,0)" xlink:href="#aO"/><use transform="matrix(0.04938271604938272,0,0,0.04938271604938272,46.320987654320994,0)" xlink:href="#aF"/><use transform="matrix(0.04938271604938272,0,0,0.04938271604938272,56.19753086419754,0)" xlink:href="#aI"/></g><g id="w"><use transform="matrix(0.04938271604938272,0,0,0.04938271604938272,0,0)" xlink:href="#aC"/><use transform="matrix(0.04938271604938272,0,0,0.04938271604938272,11.851851851851853,0)" xlink:href="#aD"/><use transform="matrix(0.04938271604938272,0,0,0.04938271604938272,21.7283950617284,0)" xlink:href="#aE"/><use transform="matrix(0.04938271604938272,0,0,0.04938271604938272,27.604938271604947,0)" xlink:href="#aF"/><use transform="matrix(0.04938271604938272,0,0,0.04938271604938272,37.48148148148149,0)" xlink:href="#aG"/><use transform="matrix(0.04938271604938272,0,0,0.04938271604938272,48.296296296296305,0)" xlink:href="#aH"/><use transform="matrix(0.04938271604938272,0,0,0.04938271604938272,59.111111111111114,0)" xlink:href="#aI"/></g><path fill="#333" d="M25-224v-37h50v37H25zM75 22c2 45-34 59-81 51V38c22 5 31-5 31-27v-201h50V22" id="aP"/><path fill="#333" d="M190-63c-7 42-38 67-86 67-59 0-84-38-90-98-12-110 154-137 174-36l-49 2c-2-19-15-32-35-32-30 0-35 28-38 64-6 74 65 87 74 30" id="aQ"/><g id="x"><use transform="matrix(0.04938271604938272,0,0,0.04938271604938272,0,0)" xlink:href="#aL"/><use transform="matrix(0.04938271604938272,0,0,0.04938271604938272,4.938271604938272,0)" xlink:href="#aG"/><use transform="matrix(0.04938271604938272,0,0,0.04938271604938272,15.753086419753087,0)" xlink:href="#aP"/><use transform="matrix(0.04938271604938272,0,0,0.04938271604938272,20.69135802469136,0)" xlink:href="#aF"/><use transform="matrix(0.04938271604938272,0,0,0.04938271604938272,30.567901234567906,0)" xlink:href="#aQ"/><use transform="matrix(0.04938271604938272,0,0,0.04938271604938272,40.44444444444445,0)" xlink:href="#aE"/></g><filter id="y" filterUnits="objectBoundingBox" x="-.05" y="-.02" width="1.1" height="1.09"><feOffset result="offOut" in="SourceAlpha" dy="6"/><feGaussianBlur result="blurOut" in="offOut" stdDeviation="5"/><feColorMatrix result="colorOut" in="blurOut" values="0 0 0 0 0 0 0 0 0 0 0 0 0 0 0 0 0 0 0.5019607843137255 0"/><feBlend in="SourceGraphic" in2="colorOut"/></filter><g id="A"><use transform="matrix(0.06172839506172839,0,0,0.06172839506172839,0,0)" xlink:href="#au"/><use transform="matrix(0.06172839506172839,0,0,0.06172839506172839,18.456790123456788,0)" xlink:href="#at"/><use transform="matrix(0.06172839506172839,0,0,0.06172839506172839,29.5679012345679,0)" xlink:href="#af"/><use transform="matrix(0.06172839506172839,0,0,0.06172839506172839,44.38271604938271,0)" xlink:href="#am"/><use transform="matrix(0.06172839506172839,0,0,0.06172839506172839,56.728395061728385,0)" xlink:href="#ak"/><use transform="matrix(0.06172839506172839,0,0,0.06172839506172839,64.07407407407406,0)" xlink:href="#am"/><use transform="matrix(0.06172839506172839,0,0,0.06172839506172839,76.41975308641975,0)" xlink:href="#aK"/><use transform="matrix(0.06172839506172839,0,0,0.06172839506172839,94.87654320987653,0)" xlink:href="#ao"/></g><filter id="z" filterUnits="objectBoundingBox" x="-.06" y="-.09" width="1.13" height="1.44"><feOffset result="offOut" in="SourceAlpha" dy="6"/><feGaussianBlur result="blurOut" in="offOut" stdDeviation="5"/><feColorMatrix result="colorOut" in="blurOut" values="0 0 0 0 0 0 0 0 0 0 0 0 0 0 0 0 0 0 0.5019607843137255 0"/><feBlend in="SourceGraphic" in2="colorOut"/></filter><path fill="#3a414a" d="M141 0L90-78 38 0H4l68-98-65-92h35l48 74 47-74h35l-64 92 68 98h-35" id="aR"/><g id="B"><use transform="matrix(0.049382716049382706,0,0,0.049382716049382706,0,0)" xlink:href="#ay"/><use transform="matrix(0.049382716049382706,0,0,0.049382716049382706,11.85185185185185,0)" xlink:href="#aR"/><use transform="matrix(0.049382716049382706,0,0,0.049382716049382706,20.740740740740737,0)" xlink:href="#aj"/><use transform="matrix(0.049382716049382706,0,0,0.049382716049382706,30.617283950617278,0)" xlink:href="#an"/><use transform="matrix(0.049382716049382706,0,0,0.049382716049382706,39.50617283950616,0)" xlink:href="#ax"/><use transform="matrix(0.049382716049382706,0,0,0.049382716049382706,52.29629629629628,0)" xlink:href="#as"/><use transform="matrix(0.049382716049382706,0,0,0.049382716049382706,62.172839506172814,0)" xlink:href="#ah"/><use transform="matrix(0.049382716049382706,0,0,0.049382716049382706,72.04938271604937,0)" xlink:href="#ai"/><use transform="matrix(0.049382716049382706,0,0,0.049382716049382706,76.98765432098763,0)" xlink:href="#aj"/><use transform="matrix(0.049382716049382706,0,0,0.049382716049382706,86.86419753086417,0)" xlink:href="#aR"/><use transform="matrix(0.049382716049382706,0,0,0.049382716049382706,95.75308641975306,0)" xlink:href="#ai"/></g><path fill="#3a414a" d="M84 4C-5 8 30-112 23-190h32v120c0 31 7 50 39 49 72-2 45-101 50-169h31l1 190h-30c-1-10 1-25-2-33-11 22-28 36-60 37" id="aS"/><g id="C"><use transform="matrix(0.06172839506172839,0,0,0.06172839506172839,0,0)" xlink:href="#ae"/><use transform="matrix(0.06172839506172839,0,0,0.06172839506172839,14.814814814814813,0)" xlink:href="#aj"/><use transform="matrix(0.06172839506172839,0,0,0.06172839506172839,27.160493827160494,0)" xlink:href="#an"/><use transform="matrix(0.06172839506172839,0,0,0.06172839506172839,38.27160493827161,0)" xlink:href="#aS"/><use transform="matrix(0.06172839506172839,0,0,0.06172839506172839,50.617283950617285,0)" xlink:href="#ak"/><use transform="matrix(0.06172839506172839,0,0,0.06172839506172839,57.96296296296296,0)" xlink:href="#aq"/><use transform="matrix(0.06172839506172839,0,0,0.06172839506172839,62.839506172839506,0)" xlink:href="#ai"/><use transform="matrix(0.06172839506172839,0,0,0.06172839506172839,69.01234567901234,0)" xlink:href="#at"/></g><g id="D"><use transform="matrix(0.06172839506172839,0,0,0.06172839506172839,0,0)" xlink:href="#az"/><use transform="matrix(0.06172839506172839,0,0,0.06172839506172839,15.987654320987653,0)" xlink:href="#am"/><use transform="matrix(0.06172839506172839,0,0,0.06172839506172839,28.333333333333332,0)" xlink:href="#ai"/><use transform="matrix(0.06172839506172839,0,0,0.06172839506172839,34.50617283950617,0)" xlink:href="#am"/></g><path fill="#3a414a" d="M87 75C49 33 22-17 22-94c0-76 28-126 65-167h31c-38 41-64 92-64 168S80 34 118 75H87" id="aT"/><path fill="#3a414a" d="M33-261c38 41 65 92 65 168S71 34 33 75H2C39 34 66-17 66-93S39-220 2-261h31" id="aU"/><g id="E"><use transform="matrix(0.06172839506172839,0,0,0.06172839506172839,0,0)" xlink:href="#au"/><use transform="matrix(0.06172839506172839,0,0,0.06172839506172839,18.456790123456788,0)" xlink:href="#at"/><use transform="matrix(0.06172839506172839,0,0,0.06172839506172839,29.5679012345679,0)" xlink:href="#az"/><use transform="matrix(0.06172839506172839,0,0,0.06172839506172839,45.55555555555555,0)" xlink:href="#ai"/><use transform="matrix(0.06172839506172839,0,0,0.06172839506172839,51.72839506172839,0)" xlink:href="#as"/><use transform="matrix(0.06172839506172839,0,0,0.06172839506172839,64.07407407407408,0)" xlink:href="#aT"/><use transform="matrix(0.06172839506172839,0,0,0.06172839506172839,71.41975308641976,0)" xlink:href="#ao"/><use transform="matrix(0.06172839506172839,0,0,0.06172839506172839,82.53086419753087,0)" xlink:href="#aU"/></g><g id="G"><use transform="matrix(0.06172839506172839,0,0,0.06172839506172839,0,0)" xlink:href="#au"/><use transform="matrix(0.06172839506172839,0,0,0.06172839506172839,18.456790123456788,0)" xlink:href="#at"/><use transform="matrix(0.06172839506172839,0,0,0.06172839506172839,29.5679012345679,0)" xlink:href="#au"/><use transform="matrix(0.06172839506172839,0,0,0.06172839506172839,48.02469135802468,0)" xlink:href="#am"/><use transform="matrix(0.06172839506172839,0,0,0.06172839506172839,60.37037037037036,0)" xlink:href="#ar"/><use transform="matrix(0.06172839506172839,0,0,0.06172839506172839,72.71604938271604,0)" xlink:href="#ar"/><use transform="matrix(0.06172839506172839,0,0,0.06172839506172839,85.06172839506172,0)" xlink:href="#aj"/><use transform="matrix(0.06172839506172839,0,0,0.06172839506172839,97.4074074074074,0)" xlink:href="#ak"/></g><path fill="#3a414a" d="M27 0v-27h64v-190l-56 39v-29l58-41h29v221h61V0H27" id="aV"/><use transform="matrix(0.06172839506172839,0,0,0.06172839506172839,0,0)" xlink:href="#aV" id="H"/><filter id="F" filterUnits="objectBoundingBox" x="-.05" y="-.07" width="1.1" height="1.33"><feOffset result="offOut" in="SourceAlpha" dy="6"/><feGaussianBlur result="blurOut" in="offOut" stdDeviation="5"/><feColorMatrix result="colorOut" in="blurOut" values="0 0 0 0 0 0 0 0 0 0 0 0 0 0 0 0 0 0 0.5019607843137255 0"/><feBlend in="SourceGraphic" in2="colorOut"/></filter><g id="I"><use transform="matrix(0.06172839506172839,0,0,0.06172839506172839,0,0)" xlink:href="#au"/><use transform="matrix(0.06172839506172839,0,0,0.06172839506172839,18.456790123456788,0)" xlink:href="#at"/><use transform="matrix(0.06172839506172839,0,0,0.06172839506172839,29.5679012345679,0)" xlink:href="#ad"/><use transform="matrix(0.06172839506172839,0,0,0.06172839506172839,45.55555555555555,0)" xlink:href="#aj"/><use transform="matrix(0.06172839506172839,0,0,0.06172839506172839,57.90123456790123,0)" xlink:href="#ar"/><use transform="matrix(0.06172839506172839,0,0,0.06172839506172839,70.24691358024691,0)" xlink:href="#as"/><use transform="matrix(0.06172839506172839,0,0,0.06172839506172839,82.5925925925926,0)" xlink:href="#ao"/><use transform="matrix(0.06172839506172839,0,0,0.06172839506172839,93.70370370370371,0)" xlink:href="#aq"/><use transform="matrix(0.06172839506172839,0,0,0.06172839506172839,98.58024691358025,0)" xlink:href="#ai"/><use transform="matrix(0.06172839506172839,0,0,0.06172839506172839,104.75308641975309,0)" xlink:href="#as"/><use transform="matrix(0.06172839506172839,0,0,0.06172839506172839,117.09876543209877,0)" xlink:href="#ak"/><use transform="matrix(0.06172839506172839,0,0,0.06172839506172839,124.44444444444446,0)" xlink:href="#at"/></g><path fill="#3a414a" d="M190 0L58-211 59 0H30v-248h39L202-35l-2-213h31V0h-41" id="aW"/><use transform="matrix(0.06172839506172839,0,0,0.06172839506172839,0,0)" xlink:href="#aW" id="J"/><g id="K"><use transform="matrix(0.049382716049382706,0,0,0.049382716049382706,0,0)" xlink:href="#Z"/><use transform="matrix(0.049382716049382706,0,0,0.049382716049382706,8.888888888888888,0)" xlink:href="#aa"/><use transform="matrix(0.049382716049382706,0,0,0.049382716049382706,20.740740740740737,0)" xlink:href="#ab"/><use transform="matrix(0.049382716049382706,0,0,0.049382716049382706,32.59259259259259,0)" xlink:href="#ac"/><use transform="matrix(0.049382716049382706,0,0,0.049382716049382706,38.46913580246913,0)" xlink:href="#ad"/><use transform="matrix(0.049382716049382706,0,0,0.049382716049382706,51.25925925925925,0)" xlink:href="#ae"/></g><g id="L"><use transform="matrix(0.049382716049382706,0,0,0.049382716049382706,0,0)" xlink:href="#ax"/><use transform="matrix(0.049382716049382706,0,0,0.049382716049382706,12.790123456790122,0)" xlink:href="#as"/><use transform="matrix(0.049382716049382706,0,0,0.049382716049382706,22.666666666666664,0)" xlink:href="#ah"/><use transform="matrix(0.049382716049382706,0,0,0.049382716049382706,32.5432098765432,0)" xlink:href="#ai"/><use transform="matrix(0.049382716049382706,0,0,0.049382716049382706,37.481481481481474,0)" xlink:href="#am"/><use transform="matrix(0.049382716049382706,0,0,0.049382716049382706,47.35802469135801,0)" xlink:href="#aq"/><use transform="matrix(0.049382716049382706,0,0,0.049382716049382706,51.25925925925925,0)" xlink:href="#ah"/><use transform="matrix(0.049382716049382706,0,0,0.049382716049382706,61.13580246913578,0)" xlink:href="#aj"/><use transform="matrix(0.049382716049382706,0,0,0.049382716049382706,71.01234567901233,0)" xlink:href="#ak"/></g><g id="N"><use transform="matrix(0.049382716049382706,0,0,0.049382716049382706,0,0)" xlink:href="#af"/><use transform="matrix(0.049382716049382706,0,0,0.049382716049382706,11.85185185185185,0)" xlink:href="#am"/><use transform="matrix(0.049382716049382706,0,0,0.049382716049382706,21.728395061728392,0)" xlink:href="#ak"/><use transform="matrix(0.049382716049382706,0,0,0.049382716049382706,27.604938271604933,0)" xlink:href="#am"/><use transform="matrix(0.049382716049382706,0,0,0.049382716049382706,37.481481481481474,0)" xlink:href="#aK"/><use transform="matrix(0.049382716049382706,0,0,0.049382716049382706,52.246913580246904,0)" xlink:href="#ao"/></g><g id="O"><use transform="matrix(0.049382716049382706,0,0,0.049382716049382706,0,0)" xlink:href="#ay"/><use transform="matrix(0.049382716049382706,0,0,0.049382716049382706,11.85185185185185,0)" xlink:href="#aR"/><use transform="matrix(0.049382716049382706,0,0,0.049382716049382706,20.740740740740737,0)" xlink:href="#ai"/><use transform="matrix(0.049382716049382706,0,0,0.049382716049382706,25.679012345679006,0)" xlink:href="#ak"/><use transform="matrix(0.049382716049382706,0,0,0.049382716049382706,31.555555555555543,0)" xlink:href="#am"/><use transform="matrix(0.049382716049382706,0,0,0.049382716049382706,41.43209876543209,0)" xlink:href="#an"/><use transform="matrix(0.049382716049382706,0,0,0.049382716049382706,50.32098765432097,0)" xlink:href="#ai"/></g><filter id="M" filterUnits="objectBoundingBox" x="-.06" y="-.1" width="1.13" height="1.51"><feOffset result="offOut" in="SourceAlpha" dy="6"/><feGaussianBlur result="blurOut" in="offOut" stdDeviation="5"/><feColorMatrix result="colorOut" in="blurOut" values="0 0 0 0 0 0 0 0 0 0 0 0 0 0 0 0 0 0 0.5019607843137255 0"/><feBlend in="SourceGraphic" in2="colorOut"/></filter><path fill="#3a414a" d="M106-169C34-169 62-67 57 0H25v-261h32l-1 103c12-21 28-36 61-36 89 0 53 116 60 194h-32v-121c2-32-8-49-39-48" id="aX"/><path fill="#3a414a" d="M9 0v-24l116-142H16v-24h144v24L44-24h123V0H9" id="aY"/><g id="P"><use transform="matrix(0.049382716049382706,0,0,0.049382716049382706,0,0)" xlink:href="#aa"/><use transform="matrix(0.049382716049382706,0,0,0.049382716049382706,11.85185185185185,0)" xlink:href="#aS"/><use transform="matrix(0.049382716049382706,0,0,0.049382716049382706,21.728395061728392,0)" xlink:href="#ai"/><use transform="matrix(0.049382716049382706,0,0,0.049382716049382706,26.666666666666668,0)" xlink:href="#aX"/><use transform="matrix(0.049382716049382706,0,0,0.049382716049382706,36.5432098765432,0)" xlink:href="#as"/><use transform="matrix(0.049382716049382706,0,0,0.049382716049382706,46.419753086419746,0)" xlink:href="#ak"/><use transform="matrix(0.049382716049382706,0,0,0.049382716049382706,52.29629629629628,0)" xlink:href="#aq"/><use transform="matrix(0.049382716049382706,0,0,0.049382716049382706,56.19753086419752,0)" xlink:href="#aY"/><use transform="matrix(0.049382716049382706,0,0,0.049382716049382706,65.08641975308642,0)" xlink:href="#aj"/></g><g id="Q"><use transform="matrix(0.049382716049382706,0,0,0.049382716049382706,0,0)" xlink:href="#aa"/><use transform="matrix(0.049382716049382706,0,0,0.049382716049382706,11.85185185185185,0)" xlink:href="#aS"/><use transform="matrix(0.049382716049382706,0,0,0.049382716049382706,21.728395061728392,0)" xlink:href="#ai"/><use transform="matrix(0.049382716049382706,0,0,0.049382716049382706,26.666666666666668,0)" xlink:href="#aX"/><use transform="matrix(0.049382716049382706,0,0,0.049382716049382706,36.5432098765432,0)" xlink:href="#aj"/><use transform="matrix(0.049382716049382706,0,0,0.049382716049382706,46.419753086419746,0)" xlink:href="#ah"/><use transform="matrix(0.049382716049382706,0,0,0.049382716049382706,56.29629629629628,0)" xlink:href="#ai"/><use transform="matrix(0.049382716049382706,0,0,0.049382716049382706,61.23456790123457,0)" xlink:href="#aq"/><use transform="matrix(0.049382716049382706,0,0,0.049382716049382706,65.1358024691358,0)" xlink:href="#an"/><use transform="matrix(0.049382716049382706,0,0,0.049382716049382706,74.02469135802468,0)" xlink:href="#am"/><use transform="matrix(0.049382716049382706,0,0,0.049382716049382706,83.90123456790123,0)" xlink:href="#ai"/><use transform="matrix(0.049382716049382706,0,0,0.049382716049382706,88.83950617283949,0)" xlink:href="#aj"/></g><g id="R"><use transform="matrix(0.049382716049382706,0,0,0.049382716049382706,0,0)" xlink:href="#ax"/><use transform="matrix(0.049382716049382706,0,0,0.049382716049382706,12.790123456790122,0)" xlink:href="#as"/><use transform="matrix(0.049382716049382706,0,0,0.049382716049382706,22.666666666666664,0)" xlink:href="#ah"/><use transform="matrix(0.049382716049382706,0,0,0.049382716049382706,32.5432098765432,0)" xlink:href="#ai"/><use transform="matrix(0.049382716049382706,0,0,0.049382716049382706,37.481481481481474,0)" xlink:href="#aj"/><use transform="matrix(0.049382716049382706,0,0,0.049382716049382706,47.35802469135801,0)" xlink:href="#aR"/><use transform="matrix(0.049382716049382706,0,0,0.049382716049382706,56.24691358024689,0)" xlink:href="#ai"/></g><g id="S"><use transform="matrix(0.049382716049382706,0,0,0.049382716049382706,0,0)" xlink:href="#ax"/><use transform="matrix(0.049382716049382706,0,0,0.049382716049382706,12.790123456790122,0)" xlink:href="#ak"/><use transform="matrix(0.049382716049382706,0,0,0.049382716049382706,18.666666666666664,0)" xlink:href="#aj"/><use transform="matrix(0.049382716049382706,0,0,0.049382716049382706,28.543209876543205,0)" xlink:href="#am"/><use transform="matrix(0.049382716049382706,0,0,0.049382716049382706,38.419753086419746,0)" xlink:href="#ai"/><use transform="matrix(0.049382716049382706,0,0,0.049382716049382706,43.35802469135802,0)" xlink:href="#aj"/></g><g id="T"><use transform="matrix(0.049382716049382706,0,0,0.049382716049382706,0,0)" xlink:href="#ay"/><use transform="matrix(0.049382716049382706,0,0,0.049382716049382706,11.85185185185185,0)" xlink:href="#aR"/><use transform="matrix(0.049382716049382706,0,0,0.049382716049382706,20.740740740740737,0)" xlink:href="#aj"/><use transform="matrix(0.049382716049382706,0,0,0.049382716049382706,30.617283950617278,0)" xlink:href="#ar"/><use transform="matrix(0.049382716049382706,0,0,0.049382716049382706,40.49382716049382,0)" xlink:href="#ai"/><use transform="matrix(0.049382716049382706,0,0,0.049382716049382706,45.432098765432094,0)" xlink:href="#aq"/><use transform="matrix(0.049382716049382706,0,0,0.049382716049382706,49.33333333333333,0)" xlink:href="#as"/><use transform="matrix(0.049382716049382706,0,0,0.049382716049382706,59.20987654320987,0)" xlink:href="#ah"/></g><g id="U"><use transform="matrix(0.049382716049382706,0,0,0.049382716049382706,0,0)" xlink:href="#aK"/><use transform="matrix(0.049382716049382706,0,0,0.049382716049382706,14.765432098765428,0)" xlink:href="#am"/><use transform="matrix(0.049382716049382706,0,0,0.049382716049382706,24.641975308641968,0)" xlink:href="#ar"/></g><g id="V"><use transform="matrix(0.04938271604938272,0,0,0.04938271604938272,0,0)" xlink:href="#aL"/><use transform="matrix(0.04938271604938272,0,0,0.04938271604938272,4.938271604938272,0)" xlink:href="#aG"/><use transform="matrix(0.04938271604938272,0,0,0.04938271604938272,15.753086419753087,0)" xlink:href="#aP"/><use transform="matrix(0.04938271604938272,0,0,0.04938271604938272,20.69135802469136,0)" xlink:href="#aF"/><use transform="matrix(0.04938271604938272,0,0,0.04938271604938272,30.567901234567906,0)" xlink:href="#aQ"/><use transform="matrix(0.04938271604938272,0,0,0.04938271604938272,40.44444444444445,0)" xlink:href="#aE"/></g><g id="W"><use transform="matrix(0.04938271604938272,0,0,0.04938271604938272,0,0)" xlink:href="#aJ"/><use transform="matrix(0.04938271604938272,0,0,0.04938271604938272,12.790123456790125,0)" xlink:href="#aI"/><use transform="matrix(0.04938271604938272,0,0,0.04938271604938272,22.66666666666667,0)" xlink:href="#aF"/><use transform="matrix(0.04938271604938272,0,0,0.04938271604938272,32.543209876543216,0)" xlink:href="#aI"/></g><path fill="#333" d="M135-150c-39-12-60 13-60 57V0H25l-1-190h47c2 13-1 29 3 40 6-28 27-53 61-41v41" id="aZ"/><g id="Y"><use transform="matrix(0.04938271604938272,0,0,0.04938271604938272,0,0)" xlink:href="#aN"/><use transform="matrix(0.04938271604938272,0,0,0.04938271604938272,10.814814814814815,0)" xlink:href="#aZ"/></g></defs></g></svg>